<svg width="13" height="16" viewBox="0 0 13 16" fill="none" xmlns="http://www.w3.org/2000/svg">
<path d="M6.3089 0C2.83015 0 0 2.83015 0 6.3089C0 7.59101 0.382528 8.82524 1.10628 9.87815C1.77425 10.8499 2.68918 11.6085 3.76124 12.0818L5.81508 15.712C5.91575 15.89 6.10443 16 6.30885 16C6.51328 16 6.70196 15.89 6.80263 15.712L8.85647 12.0818C9.92852 11.6085 10.8435 10.8499 11.5114 9.87815C12.2353 8.82529 12.6178 7.59101 12.6178 6.3089C12.6178 2.83015 9.7876 0 6.3089 0ZM8.24532 11.1083C8.12636 11.1564 8.02714 11.2434 7.96401 11.355L6.3089 14.2805L4.65379 11.355C4.59061 11.2434 4.49144 11.1564 4.37247 11.1083C2.4056 10.3138 1.13469 8.42996 1.13469 6.3089C1.13469 3.45582 3.45582 1.13469 6.3089 1.13469C9.16197 1.13469 11.4831 3.45582 11.4831 6.3089C11.4831 8.42996 10.2122 10.3138 8.24532 11.1083Z" fill="#FF6B18"/>
<path d="M6.30891 3.89246C4.99498 3.89246 3.92606 4.96138 3.92606 6.27531C3.92606 7.58924 4.99498 8.65817 6.30891 8.65817C7.62284 8.65817 8.69177 7.58924 8.69177 6.27531C8.69177 4.96138 7.62284 3.89246 6.30891 3.89246ZM6.30891 7.52348C5.62065 7.52348 5.06075 6.96357 5.06075 6.27531C5.06075 5.58705 5.62065 5.02715 6.30891 5.02715C6.99717 5.02715 7.55708 5.58705 7.55708 6.27531C7.55708 6.96357 6.99717 7.52348 6.30891 7.52348Z" fill="#FF6B18"/>
</svg>
