<svg width="16" height="12" viewBox="0 0 16 12" fill="none" xmlns="http://www.w3.org/2000/svg">
<path d="M15.4574 0H0.542557C0.242935 0 0 0.242935 0 0.542557V11.0893C0 11.3889 0.242935 11.6319 0.542557 11.6319H15.4574C15.757 11.6319 16 11.3889 16 11.0893V0.542557C16 0.242979 15.757 0 15.4574 0ZM14.9149 10.5468H1.08511V1.08511H14.9149V10.5468Z" fill="#FF6B18"/>
<path d="M2.50684 3.6409L7.71538 6.8501C7.80263 6.90388 7.90128 6.93075 7.99999 6.93075C8.09869 6.93075 8.19735 6.90388 8.28459 6.8501L13.4931 3.6409C13.7482 3.48373 13.8277 3.14947 13.6705 2.89438C13.5133 2.6393 13.179 2.55987 12.924 2.71708L7.99999 5.75088L3.07604 2.71708C2.82104 2.56 2.48678 2.63925 2.32953 2.89438C2.17232 3.14943 2.2517 3.48373 2.50684 3.6409Z" fill="#FF6B18"/>
</svg>
