<svg width="16" height="16" viewBox="0 0 16 16" fill="none" xmlns="http://www.w3.org/2000/svg">
<path d="M12.0332 16C10.8026 16 9.82889 15.1841 9.11807 14.4732L1.52698 6.8822C0.892334 6.24755 0.147437 5.37999 0.0195882 4.29535C-0.10781 3.21512 0.385262 2.13502 1.52698 0.993301C2.18612 0.334207 2.9186 0 3.70414 0C5.57541 0 7.00457 1.94046 7.12535 2.10927C7.76121 2.95456 7.49156 3.96929 7.25356 4.8649C6.99971 5.8203 6.86659 6.42839 7.30974 6.87154L9.1287 8.6904C9.32848 8.89019 9.56293 8.97928 9.88903 8.97923C10.2598 8.97919 10.6851 8.86624 11.1353 8.74663C11.6265 8.61613 12.1343 8.48121 12.635 8.48121C13.121 8.48121 13.5435 8.6136 13.891 8.87493C14.0514 8.98959 15.8388 10.3058 15.99 12.0585C16.0654 12.9331 15.7346 13.7455 15.0069 14.4732C13.9796 15.5006 13.0069 16 12.0332 16ZM3.70414 1.12547C3.2212 1.12547 2.76932 1.34254 2.32275 1.78916C1.4406 2.67127 1.05282 3.44795 1.13718 4.16358C1.20538 4.74169 1.57101 5.33474 2.32275 6.08648L9.91384 13.6775C10.7418 14.5054 11.3953 14.8746 12.0332 14.8746C12.6932 14.8746 13.4056 14.4831 14.2111 13.6775C14.6989 13.1898 14.9141 12.6928 14.8689 12.1584C14.7615 10.8859 13.2488 9.79926 13.2335 9.78846C13.2286 9.78486 13.2228 9.78063 13.2178 9.77694C13.0649 9.66079 12.8797 9.60673 12.6349 9.60673C12.2813 9.60673 11.865 9.71733 11.4242 9.83442C10.924 9.96731 10.4068 10.1047 9.88903 10.1047C9.88903 10.1047 9.88885 10.1047 9.88876 10.1047C9.26667 10.1047 8.74321 9.89668 8.33288 9.48631L6.51388 7.66744C5.58991 6.74342 5.90921 5.5416 6.16585 4.57598C6.39481 3.71436 6.51289 3.16366 6.2233 2.78246C6.21915 2.77701 6.21515 2.77152 6.21119 2.76594C6.20025 2.75032 5.03246 1.12547 3.70414 1.12547Z" fill="#FF6B18"/>
</svg>
